<?xml version="1.0" standalone="no"?><!DOCTYPE svg PUBLIC "-//W3C//DTD SVG 1.1//EN" "http://www.w3.org/Graphics/SVG/1.1/DTD/svg11.dtd"><svg t="1592750743012" class="icon" viewBox="0 0 1024 1024" version="1.1" xmlns="http://www.w3.org/2000/svg" p-id="2641" xmlns:xlink="http://www.w3.org/1999/xlink" width="200" height="200"><defs><style type="text/css"></style></defs><path d="M0 525.653333C0 749.226667 143.36 938.666667 343.04 1008.64c27.306667 6.826667 22.186667-11.946667 22.186667-25.6v-88.746667c-155.306667 18.773333-162.133333-85.333333-172.373334-102.4-20.48-35.84-69.973333-44.373333-56.32-63.146666 35.84-18.773333 71.68 5.12 112.64 66.56 30.72 44.373333 88.746667 37.546667 119.466667 29.013333 6.826667-27.306667 20.48-51.2 39.253333-69.973333-160.426667-29.013333-228.693333-126.293333-228.693333-244.053334 0-56.32 18.773333-109.226667 54.613333-150.186666-23.893333-69.973333 1.706667-128 5.12-136.533334 66.56-6.826667 134.826667 47.786667 141.653334 51.2 37.546667-10.24 80.213333-15.36 129.706666-15.36 47.786667 0 92.16 5.12 129.706667 15.36 13.653333-10.24 76.8-56.32 138.24-49.493333 3.413333 8.533333 29.013333 66.56 6.826667 134.826667 37.546667 42.666667 56.32 93.866667 56.32 151.893333 0 117.76-68.266667 215.04-228.693334 244.053333 27.306667 27.306667 44.373333 63.146667 44.373334 104.106667V989.866667c1.706667 10.24 0 20.48 17.066666 20.48C878.933333 942.08 1024 750.933333 1024 525.653333c0-283.306667-228.693333-512-512-512S0 242.346667 0 525.653333z" p-id="2642" fill="#24292e"></path></svg>
