<?xml version="1.0" standalone="no"?><!DOCTYPE svg PUBLIC "-//W3C//DTD SVG 1.1//EN" "http://www.w3.org/Graphics/SVG/1.1/DTD/svg11.dtd"><svg t="1592751549017" class="icon" viewBox="0 0 1024 1024" version="1.1" xmlns="http://www.w3.org/2000/svg" p-id="3034" xmlns:xlink="http://www.w3.org/1999/xlink" width="200" height="200"><defs><style type="text/css"></style></defs><path d="M37.926 512a474.074 474.074 0 1 0 948.148 0 474.074 474.074 0 1 0-948.148 0z" p-id="3035" fill="#ca2c2a"></path><path d="M714.335 274.584c-135.396 22.186-270.602 45.321-405.808 67.697-43.425 7.206-48.734 13.085-50.062 57.269-0.758 21.428 8.723 31.857 30.34 28.823 26.36-3.792 52.528-8.154 82.87-13.084v300.373c0 18.963 1.706 38.116 27.685 35.082 27.496-3.224 54.234-35.84 54.424-64.095 0.19-53.286 0-106.572 0-160.048V400.877c40.201-6.637 77.558-12.895 119.656-19.721 0 46.648 3.034 88.936-0.569 130.844-6.637 75.852 10.809 143.55 51.769 207.834 15.17 23.704 28.824 35.84 57.647 34.133 40.96-2.654 45.89-9.102 27.686-45.89-18.204-37.167-46.459-73.576-50.82-112.26-8.154-74.904-2.276-151.325-2.276-228.125 24.273-4.362 46.46-8.533 68.836-12.326 31.668-5.5 45.131-25.79 38.494-63.147-5.878-32.806-30.91-20.859-49.872-17.635z" fill="#FFFFFF" p-id="3036"></path></svg>
