<?xml version="1.0" standalone="no"?>
<!DOCTYPE svg PUBLIC "-//W3C//DTD SVG 20010904//EN"
 "http://www.w3.org/TR/2001/REC-SVG-20010904/DTD/svg10.dtd">
<svg version="1.0" xmlns="http://www.w3.org/2000/svg"
 width="495.000000pt" height="495.000000pt" viewBox="0 0 495.000000 495.000000"
 preserveAspectRatio="xMidYMid meet">
<metadata>
Created by potrace 1.11, written by Peter Selinger 2001-2013
</metadata>
<g transform="translate(0.000000,495.000000) scale(0.100000,-0.100000)"
fill="#000000" stroke="none">
<path d="M0 2475 l0 -2475 2475 0 2475 0 0 2475 0 2475 -2475 0 -2475 0 0
-2475z m2210 991 c149 -20 312 -20 548 -1 394 32 576 -21 686 -198 53 -86 81
-164 101 -289 8 -51 24 -144 36 -207 11 -62 18 -115 16 -118 -9 -8 -254 30
-302 48 -113 41 -171 53 -270 53 -104 1 -196 -14 -255 -42 -36 -18 -51 -49
-29 -63 8 -5 0 -10 -24 -14 -20 -4 -35 -10 -33 -14 2 -3 -10 -6 -27 -7 -18 0
-66 -6 -108 -13 -57 -9 -98 -9 -165 -1 -49 6 -103 12 -121 13 -17 1 -29 5 -27
9 3 4 -11 10 -31 14 -39 7 -39 8 -25 33 13 26 -10 43 -95 72 -59 20 -89 24
-190 23 -105 0 -130 -4 -200 -28 -49 -17 -117 -31 -175 -37 -140 -12 -129 -15
-119 29 5 20 18 103 29 183 31 223 78 342 175 447 58 63 131 102 225 122 57
12 230 5 380 -14z m-245 -776 c27 -7 28 -8 5 -8 -14 0 -45 3 -70 7 l-45 8 40
1 c22 0 54 -4 70 -8z m62 -16 c-3 -3 -12 -4 -19 -1 -8 3 -5 6 6 6 11 1 17 -2
13 -5z m950 0 c-3 -3 -12 -4 -19 -1 -8 3 -5 6 6 6 11 1 17 -2 13 -5z m-87 -24
c0 -5 -7 -10 -16 -10 -8 0 -12 5 -9 10 3 6 10 10 16 10 5 0 9 -4 9 -10z m-133
-26 c-3 -3 -12 -4 -19 -1 -8 3 -5 6 6 6 11 1 17 -2 13 -5z m-866 -44 c133 -13
193 -27 249 -57 25 -13 36 -21 25 -18 -82 26 -390 28 -478 3 -85 -24 -165 -75
-198 -127 -34 -53 -35 -61 -9 -61 11 0 20 4 20 9 0 5 15 23 33 41 45 46 149
93 216 98 71 6 62 -5 -20 -24 -67 -16 -108 -45 -135 -96 -26 -51 -17 -66 17
-25 33 40 105 87 133 87 15 0 15 -2 -1 -32 -24 -47 -23 -134 3 -178 21 -37 64
-54 64 -25 0 14 3 14 30 0 61 -32 146 -13 189 41 22 28 41 25 41 -9 1 -21 1
-21 15 3 8 14 14 50 15 80 l0 54 41 -39 41 -40 -16 31 c-32 65 -166 154 -231
154 -13 0 -27 5 -30 10 -3 6 4 10 17 10 45 0 193 -23 202 -31 6 -5 19 -9 31
-9 12 0 26 -5 32 -11 8 -8 14 -6 22 9 6 10 7 23 3 27 -4 5 -1 5 6 1 34 -20 -9
-239 -72 -364 -45 -90 -82 -131 -142 -162 -95 -47 -301 -37 -421 21 -73 35
-103 68 -134 146 -20 52 -23 76 -23 228 -1 151 1 173 18 198 22 33 48 48 96
58 54 11 237 10 351 -1z m1476 -21 c110 -22 128 -61 120 -263 -10 -288 -81
-377 -321 -407 -162 -21 -288 10 -355 87 -68 77 -127 236 -137 369 -5 66 -4
86 4 81 7 -4 12 -16 12 -28 0 -15 3 -18 13 -10 21 17 141 56 166 54 13 -1 29
2 36 8 11 9 83 5 94 -5 5 -5 -42 -9 -73 -6 -11 1 -17 -2 -13 -5 4 -4 -14 -20
-41 -35 -56 -32 -117 -94 -127 -129 -6 -20 0 -17 33 20 l41 45 1 -61 c0 -47 5
-69 23 -95 26 -39 57 -51 57 -21 0 20 0 20 37 1 21 -10 48 -19 60 -19 34 0 89
25 118 54 27 27 55 25 55 -3 1 -11 5 -8 15 9 19 33 19 112 0 157 -8 20 -13 38
-11 40 10 10 105 -46 144 -85 36 -38 42 -41 42 -22 0 11 -19 42 -43 67 -33 35
-59 51 -112 69 l-70 23 69 -5 c72 -5 119 -25 206 -83 56 -38 78 -26 34 20 -36
38 -116 80 -209 108 -59 19 -96 22 -230 23 -173 1 -243 -5 -276 -23 -15 -8
-19 -8 -15 0 12 19 79 48 141 61 136 29 390 33 512 9z m-1487 -88 c0 -5 -17
-9 -37 -9 -29 0 -33 2 -18 9 27 11 55 11 55 0z m1208 -18 c-10 -2 -28 -2 -40
0 -13 2 -5 4 17 4 22 1 32 -1 23 -4z m-1815 -31 c10 -11 19 -45 23 -83 l6 -64
-32 38 c-17 20 -36 37 -41 37 -19 0 -8 -22 30 -59 28 -27 42 -51 46 -77 3 -22
12 -70 20 -109 15 -79 39 -344 32 -352 -16 -16 -50 15 -76 70 -36 75 -81 327
-83 464 -2 125 31 184 75 135z m2561 -42 c57 -98 -15 -522 -106 -626 -21 -24
-39 -34 -59 -34 -34 0 -35 7 -20 135 18 152 20 193 21 359 1 141 4 166 17 166
8 0 27 9 41 20 39 31 81 23 106 -20z m-1954 -21 c0 -33 -17 -44 -55 -35 -34 9
-36 62 -2 75 33 13 57 -4 57 -40z m1077 23 c11 -7 16 -26 14 -49 0 -7 -10 -17
-21 -23 -27 -15 -60 4 -60 33 0 38 35 59 67 39z m-421 -57 c7 -10 25 -54 40
-99 14 -45 50 -131 79 -191 44 -92 64 -121 114 -168 56 -52 72 -62 94 -58 4 0
7 -3 7 -7 0 -4 12 -9 27 -10 15 -1 29 -6 32 -10 11 -16 42 -21 218 -32 159
-10 186 -10 236 5 67 19 101 55 111 117 4 23 18 59 32 79 14 20 36 68 49 105
l25 69 -6 -90 c-5 -100 -11 -163 -20 -215 -14 -83 -57 -259 -75 -310 -24 -67
-71 -164 -81 -168 -5 -2 -8 -8 -8 -13 0 -11 0 -11 -59 -82 -85 -100 -260 -225
-433 -306 -91 -43 -127 -55 -228 -77 -91 -19 -308 -24 -410 -9 -40 6 -67 13
-170 41 -14 4 -31 11 -37 17 -7 5 -13 6 -13 2 0 -5 -8 -1 -17 7 -10 9 -28 19
-41 23 -19 5 -133 75 -167 103 -5 4 -44 33 -85 64 -89 66 -171 151 -189 196
-7 18 -17 32 -21 32 -6 0 -52 91 -55 110 0 3 -6 15 -13 28 -7 12 -11 22 -8 22
3 0 -2 16 -10 35 -23 57 -74 399 -60 412 6 6 106 -110 106 -123 0 -18 87 -45
163 -50 79 -6 124 5 67 16 -28 6 -21 8 35 9 64 1 80 -10 30 -22 -15 -4 -14 -5
7 -6 15 0 30 4 33 10 4 6 14 8 22 5 9 -4 11 -2 7 6 -5 8 13 10 69 5 77 -7 107
-3 107 15 0 5 -6 6 -12 2 -10 -5 -10 -4 -1 6 9 10 15 11 26 1 12 -9 21 -6 46
15 18 15 30 29 27 31 -3 3 20 29 50 58 30 29 54 60 54 68 0 9 8 23 18 33 9 10
16 19 14 21 -1 2 5 17 13 34 9 17 28 65 42 107 14 42 29 82 34 88 5 6 6 13 3
17 -3 3 5 11 17 18 13 7 30 19 38 27 20 20 110 11 127 -13z m-987 -382 c2 -2
0 -3 -5 -3 -5 0 -25 14 -44 31 l-35 30 40 -27 c22 -16 42 -29 44 -31z m1856 1
c-21 -17 -84 -50 -75 -41 3 4 21 17 40 31 38 26 68 35 35 10z m27 -112 c-22
-30 -74 -51 -147 -59 -69 -8 -269 -5 -292 4 -14 5 21 8 95 9 141 1 216 15 296
53 34 15 63 27 65 25 2 -2 -6 -16 -17 -32z m-1858 2 c23 -9 20 -23 -4 -17 -11
3 -20 9 -20 14 0 11 3 11 24 3z m91 -24 l30 -8 -30 0 c-16 0 -39 3 -50 8 l-20
9 20 -1 c11 0 34 -4 50 -8z"/>
<path d="M3777 2291 c-37 -33 -87 -125 -86 -158 0 -10 11 7 25 37 14 30 43 70
66 91 22 19 39 41 36 49 -3 9 -15 3 -41 -19z"/>
<path d="M2241 1780 c-1 -46 34 -105 72 -123 82 -39 205 -37 269 5 30 20 61
80 56 111 -3 19 -6 16 -27 -19 -40 -71 -125 -102 -225 -83 -65 12 -95 34 -123
90 -19 37 -22 40 -22 19z"/>
<path d="M2110 1434 c99 -25 366 -39 524 -26 237 20 209 27 -107 27 -166 0
-340 3 -387 7 l-85 7 55 -15z"/>
</g>
</svg>
