<svg xmlns="http://www.w3.org/2000/svg" xmlns:xlink="http://www.w3.org/1999/xlink" viewBox="0 0 1771.38 992.66"><defs><style>.cls-1,.cls-10,.cls-11,.cls-12,.cls-13,.cls-28,.cls-30,.cls-31,.cls-33,.cls-43,.cls-45,.cls-48,.cls-8,.cls-9{fill:none;}.cls-15,.cls-2{fill:#ecf6ff;}.cls-3{fill:#cce3ff;}.cls-4{fill:#e6f4ff;}.cls-5{fill:#b6d4ff;}.cls-6{fill:#c5e0fc;}.cls-7{fill:#dceeff;}.cls-8{stroke:#cce3ff;}.cls-10,.cls-11,.cls-12,.cls-13,.cls-14,.cls-15,.cls-27,.cls-28,.cls-30,.cls-31,.cls-33,.cls-34,.cls-43,.cls-45,.cls-48,.cls-8,.cls-9{stroke-miterlimit:10;}.cls-13,.cls-14,.cls-33,.cls-34,.cls-8{stroke-width:7px;}.cls-11,.cls-15,.cls-9{stroke:#dceeff;}.cls-9{stroke-width:15px;}.cls-10{stroke:#ecf6ff;stroke-width:22px;}.cls-11{stroke-width:17px;}.cls-12,.cls-13,.cls-14{stroke:#b6d4ff;}.cls-12,.cls-15{stroke-width:20px;}.cls-14,.cls-20,.cls-34{fill:#fff;}.cls-15{stroke-linecap:round;}.cls-16{fill:#afb2bf;}.cls-17{fill:#5e5e6b;}.cls-18{fill:#383844;}.cls-19{fill:#80808c;}.cls-21{fill:#b6bacc;}.cls-22{clip-path:url(#clip-path);}.cls-23{fill:#070707;}.cls-24{fill:url(#linear-gradient);}.cls-25{fill:url(#linear-gradient-2);}.cls-26{fill:#3c4349;}.cls-27{fill:#0dffff;stroke-width:8px;}.cls-27,.cls-28{stroke:#53d3d0;}.cls-28,.cls-30,.cls-31,.cls-48{stroke-width:4px;}.cls-29{fill:#d4e8e7;}.cls-30{stroke:#b6bacc;}.cls-31{stroke:#747884;}.cls-32{fill:#e576c6;}.cls-33,.cls-34{stroke:#000;}.cls-35{fill:#ffc000;}.cls-36{fill:#db8b21;}.cls-37{fill:#18181c;}.cls-38{fill:#a5a5af;}.cls-39{fill:#0d0b6d;}.cls-40{fill:#cf3e83;}.cls-41{fill:#ffe088;}.cls-42{fill:#f9d069;}.cls-43{stroke:#0d0b6d;stroke-width:9px;}.cls-44{fill:#405fd3;}.cls-45{stroke:#e08314;stroke-width:5px;}.cls-46{fill:#d32626;}.cls-47{fill:#e2cfcf;}.cls-48{stroke:#010094;}.cls-49{fill:#2f2f3d;}</style><clipPath id="clip-path" transform="translate(-118.91 -168)"><polygon class="cls-1" points="1295.9 624.57 932.11 624.57 995.22 391.72 1358.62 391.72 1295.9 624.57"/></clipPath><linearGradient id="linear-gradient" x1="1168.07" y1="172.23" x2="1221.48" y2="443.02" gradientUnits="userSpaceOnUse"><stop offset="0" stop-color="#8c959c"/><stop offset="1" stop-color="#070915"/></linearGradient><linearGradient id="linear-gradient-2" x1="1269.12" y1="488.82" x2="1158.34" y2="387.07" gradientTransform="translate(3.62 1.55) rotate(1.69)" xlink:href="#linear-gradient"/></defs><title>back and obj 21</title><g id="Back"><rect class="cls-2" x="748.02" y="148.9" width="159.7" height="207.1"/><rect class="cls-3" x="777.5" y="187.13" width="100.74" height="130.64"/><rect class="cls-3" x="907.72" y="148.9" width="12.35" height="207.1"/><rect class="cls-2" x="1029.01" y="148.9" width="159.7" height="207.1"/><rect class="cls-3" x="1058.49" y="187.13" width="100.74" height="130.64"/><rect class="cls-3" x="1188.71" y="148.9" width="12.35" height="207.1"/><rect class="cls-3" x="394.8" y="41.36" width="58.43" height="79.89"/><rect class="cls-3" x="394.8" y="33.6" width="58.43" height="4.94"/><rect class="cls-3" x="386.29" y="38.53" width="75.44" height="13.82" rx="6.52"/><polygon class="cls-3" points="494.25 0 563.96 0 545.19 61.75 513.02 61.75 494.25 0"/><rect class="cls-4" x="158.89" y="125.1" width="370.35" height="659.57"/><rect class="cls-4" x="158.89" y="125.1" width="21.32" height="706.85"/><rect class="cls-5" x="180.22" y="784.67" width="21.32" height="47.28"/><rect class="cls-5" x="310.03" y="784.67" width="21.32" height="47.28"/><rect class="cls-5" x="529.25" y="784.67" width="21.32" height="47.28"/><rect class="cls-6" x="616.41" y="784.67" width="21.32" height="47.28"/><rect class="cls-4" x="507.92" y="125.1" width="21.32" height="706.85"/><rect class="cls-5" x="637.73" y="784.67" width="21.32" height="47.94"/><rect class="cls-6" x="288.7" y="784.67" width="21.32" height="47.28"/><ellipse class="cls-3" cx="529.11" cy="84.87" rx="32.13" ry="45.06"/><rect class="cls-3" x="180.22" y="628.83" width="327.71" height="126.56"/><rect class="cls-5" x="180.22" y="628.83" width="101.38" height="126.56"/><rect class="cls-3" x="180.22" y="473.99" width="327.71" height="126.56"/><rect class="cls-5" x="180.22" y="473.99" width="101.38" height="126.56"/><rect class="cls-3" x="180.22" y="319.16" width="327.71" height="126.56"/><rect class="cls-5" x="180.22" y="319.16" width="101.38" height="126.56"/><rect class="cls-3" x="180.22" y="164.32" width="327.71" height="126.56"/><rect class="cls-5" x="180.22" y="164.32" width="101.38" height="126.56"/><rect class="cls-5" x="529.25" y="125.1" width="129.81" height="659.57"/><path class="cls-4" d="M131,113.68H525a0,0,0,0,1,0,0v20.88a0,0,0,0,1,0,0H150.71A19.69,19.69,0,0,1,131,114.86v-1.18A0,0,0,0,1,131,113.68Z"/><path class="cls-5" d="M525,113.68H686.71a0,0,0,0,1,0,0v1.18A19.69,19.69,0,0,1,667,134.56H525a0,0,0,0,1,0,0V113.68A0,0,0,0,1,525,113.68Z"/><rect class="cls-3" x="158.89" y="134.56" width="370.35" height="9.13"/><rect class="cls-7" x="253.64" y="214.01" width="20.12" height="76.87"/><rect class="cls-3" x="233.52" y="214.01" width="20.12" height="76.87"/><rect class="cls-3" x="273.77" y="214.01" width="20.12" height="76.87"/><path class="cls-5" d="M293.89,214h53a5.13,5.13,0,0,1,5.13,5.13v66.62a5.13,5.13,0,0,1-5.13,5.13h-53a0,0,0,0,1,0,0V214A0,0,0,0,1,293.89,214Z"/><rect class="cls-3" x="438.06" y="376.56" width="7.61" height="40.92" transform="translate(-74.05 670.89) rotate(-90)"/><rect class="cls-3" x="438.06" y="397.42" width="7.61" height="22.68" transform="translate(-85.8 682.63) rotate(-90)"/><path class="cls-5" d="M510.12,504.64H539a0,0,0,0,1,0,0v118a13.61,13.61,0,0,1-13.61,13.61h-1.64a13.61,13.61,0,0,1-13.61-13.61v-118A0,0,0,0,1,510.12,504.64Z" transform="translate(-164.77 926.98) rotate(-90)"/><path class="cls-7" d="M476.54,544.46h16.38a.16.16,0,0,1,.16.16V588.5a7.88,7.88,0,0,1-7.88,7.88h-.95a7.88,7.88,0,0,1-7.88-7.88V544.62a.16.16,0,0,1,.16-.16Z" transform="translate(-204.59 887.16) rotate(-90)"/><path class="cls-5" d="M534.85,528.09h1.64A13.61,13.61,0,0,1,550.1,541.7V670.49a0,0,0,0,1,0,0H521.23a0,0,0,0,1,0,0V541.7A13.61,13.61,0,0,1,534.85,528.09Z" transform="translate(-182.53 966.95) rotate(-90)"/><path class="cls-7" d="M576.05,568.94H577a7.81,7.81,0,0,1,7.81,7.81v52.88a0,0,0,0,1,0,0H568.25a0,0,0,0,1,0,0V576.75a7.81,7.81,0,0,1,7.81-7.81Z" transform="translate(-141.67 1007.81) rotate(-90)"/><rect class="cls-3" x="1629.79" y="886.23" width="167.61" height="17.27" transform="translate(699.83 2440.46) rotate(-90)"/><rect class="cls-7" x="1386.13" y="888.41" width="167.61" height="12.9" transform="translate(456.18 2196.8) rotate(-90)"/><rect class="cls-7" x="1450.68" y="820.03" width="279.76" height="9.36" rx="4.68" transform="translate(3062.21 1481.41) rotate(180)"/><rect class="cls-7" x="1450.68" y="959.72" width="279.76" height="9.36" rx="4.68" transform="translate(3062.21 1760.79) rotate(180)"/><rect class="cls-7" x="1408.99" y="888.41" width="167.61" height="12.9" transform="translate(479.03 2219.66) rotate(-90)"/><rect class="cls-7" x="1431.85" y="888.41" width="167.61" height="12.9" transform="translate(501.89 2242.51) rotate(-90)"/><rect class="cls-7" x="1454.7" y="888.41" width="167.61" height="12.9" transform="translate(524.75 2265.37) rotate(-90)"/><rect class="cls-7" x="1477.56" y="888.41" width="167.61" height="12.9" transform="translate(547.6 2288.23) rotate(-90)"/><rect class="cls-7" x="1500.42" y="888.41" width="167.61" height="12.9" transform="translate(570.46 2311.09) rotate(-90)"/><rect class="cls-7" x="1523.28" y="888.41" width="167.61" height="12.9" transform="translate(593.32 2333.94) rotate(-90)"/><rect class="cls-7" x="1546.13" y="888.41" width="167.61" height="12.9" transform="translate(616.18 2356.8) rotate(-90)"/><rect class="cls-7" x="1568.99" y="888.41" width="167.61" height="12.9" transform="translate(639.03 2379.66) rotate(-90)"/><rect class="cls-7" x="1591.85" y="888.41" width="167.61" height="12.9" transform="translate(661.89 2402.52) rotate(-90)"/><rect class="cls-7" x="1614.71" y="888.41" width="167.61" height="12.9" transform="translate(684.75 2425.37) rotate(-90)"/><path class="cls-8" d="M883.55,539.7s-4-20.6-17.47-19.28c-28.19,2.75,6.34,93.33-51.67,99.15s-64-84.92-64-84.92" transform="translate(-118.91 -168)"/><line class="cls-9" x1="762.56" y1="311.38" x2="762.56" y2="841.08"/><line class="cls-9" x1="631.47" y1="366.65" x2="977.64" y2="217.43"/><path class="cls-7" d="M711.05,810.67H813.65A15.37,15.37,0,0,1,829,826v6.56a0,0,0,0,1,0,0H695.68a0,0,0,0,1,0,0V826A15.37,15.37,0,0,1,711.05,810.67Z"/><polygon class="cls-5" points="1050.19 293.54 936.75 318.24 933.08 286.54 1040.35 263.19 1050.19 293.54"/><path class="cls-5" d="M1094,356.62h1.74a16.44,16.44,0,0,1,16.44,16.44v45.39a0,0,0,0,1,0,0h-34.61a0,0,0,0,1,0,0V373.06A16.44,16.44,0,0,1,1094,356.62Z" transform="translate(-176.28 73.78) rotate(-12.28)"/><polygon class="cls-5" points="933.08 286.54 966.74 242.41 991.39 237.04 1040.35 263.19 933.08 286.54"/><line class="cls-10" x1="1483.7" y1="103.23" x2="1483.7" y2="592.57"/><line class="cls-11" x1="1475.64" y1="85.69" x2="1475.64" y2="594.15"/><line class="cls-12" x1="1659.17" y1="83.5" x2="1659.17" y2="595.38"/><line class="cls-10" x1="1313.7" y1="87.68" x2="1313.7" y2="590.82"/><path class="cls-7" d="M1749.89,273.5V741.38H1433.53V273.5h316.36m22-22H1411.53V763.38h360.36V251.5Z" transform="translate(-118.91 -168)"/><circle class="cls-5" cx="1408.57" cy="576.96" r="21.59"/><path class="cls-5" d="M1516.18,716c2.42,7.11,10.18,10.9,10.18,10.9s3.84-7.74,1.41-14.86-10.18-10.9-10.18-10.9S1513.76,708.85,1516.18,716Z" transform="translate(-118.91 -168)"/><rect class="cls-3" x="1222.66" y="595.38" width="446.36" height="25.23"/><rect class="cls-5" x="1565.22" y="595.38" width="110.57" height="25.23"/><line class="cls-11" x1="1319.98" y1="262.44" x2="1652.98" y2="262.44"/><rect class="cls-3" x="1319.98" y="103.23" width="316.31" height="14.36"/><rect class="cls-3" x="1319.98" y="128.64" width="316.31" height="14.36"/><rect class="cls-3" x="1319.98" y="154.05" width="316.31" height="14.36"/><rect class="cls-3" x="1319.98" y="179.46" width="316.31" height="14.36"/><rect class="cls-3" x="1319.98" y="204.87" width="316.31" height="14.36"/><polygon class="cls-5" points="1518.73 555.77 1569.47 555.77 1564.11 595.75 1524.09 595.75 1518.73 555.77"/><polygon class="cls-5" points="1312.26 548.71 1371.51 548.71 1365.25 595.38 1318.51 595.38 1312.26 548.71"/><path class="cls-5" d="M1666.69,700.18c2.47,21.44-5.56,39.77-5.56,39.77s-12-16.45-14.5-37.9,5.56-39.77,5.56-39.77S1664.22,678.73,1666.69,700.18Z" transform="translate(-118.91 -168)"/><path class="cls-5" d="M1661.48,717.39a86.2,86.2,0,0,1,10.43,39s-17.72-11.54-28.45-30.81a86.2,86.2,0,0,1-10.43-39S1650.74,698.12,1661.48,717.39Z" transform="translate(-118.91 -168)"/><line class="cls-11" x1="1319.98" y1="421.44" x2="1652.98" y2="421.44"/><path class="cls-5" d="M1676.59,702.48c-2.75,21.42-15,37.74-15,37.74s-7.79-18.41-5-39.83,15-37.75,15-37.75S1679.34,681.05,1676.59,702.48Z" transform="translate(-118.91 -168)"/><path class="cls-5" d="M1685.53,718c-8.84,20-25.38,32.92-25.38,32.92a85.38,85.38,0,0,1,6.64-39.65c8.84-20,25.37-32.91,25.37-32.91A85.25,85.25,0,0,1,1685.53,718Z" transform="translate(-118.91 -168)"/><rect class="cls-5" x="1329.43" y="453.85" width="21.08" height="114.86" rx="10.54"/><rect class="cls-5" x="1307.2" y="493.91" width="35.46" height="11.63" rx="5.67"/><rect class="cls-5" x="1307.2" y="471.9" width="13.77" height="33.65" rx="6.88"/><rect class="cls-5" x="1459.35" y="689.85" width="33.96" height="14.77" rx="5.67" transform="translate(2833.75 1226.46) rotate(-180)"/><rect class="cls-5" x="1480.12" y="670.36" width="13.18" height="34.25" rx="6.11" transform="translate(2854.53 1206.98) rotate(180)"/><polygon class="cls-3" points="1025.77 639.83 1014.47 639.83 966.1 834.48 977.39 834.48 1025.77 639.83"/><line class="cls-13" x1="1071.55" y1="736.24" x2="1098.31" y2="641.81"/><line class="cls-13" x1="1050.62" y1="641.81" x2="1120.34" y2="735.98"/><line class="cls-14" x1="1050.62" y1="641.81" x2="950.63" y2="734.93"/><polygon class="cls-3" points="1092.42 639.71 1103.56 639.71 1151.23 834.48 1140.09 834.48 1092.42 639.71"/><line class="cls-13" x1="972.5" y1="641.81" x2="1071.55" y2="734.93"/><polygon class="cls-7" points="978.05 639.83 966.75 639.83 918.38 834.48 929.68 834.48 978.05 639.83"/><polygon class="cls-7" points="1044.78 639.83 1056.08 639.83 1104.45 834.48 1093.15 834.48 1044.78 639.83"/><path class="cls-7" d="M1021.13,786.14v1.49a22.52,22.52,0,0,0,22.51,22.51H1220c27.2,0,48.13-25,44.38-52.95L1244.43,601.3c-1.72-12.92-12.34-22.52-24.9-22.52h-52.25c-12.55,0-23.17,9.6-24.9,22.52l-19.91,155.89c-.15,1.11-.26,2.23-.32,3.33l-.11,0s-3.68,25.64-37.91,25.64Z" transform="translate(-118.91 -168)"/><path class="cls-2" d="M1209.75,785.25H1094.48c24.65-4.51,27.56-24.75,27.56-24.75l.11,0c.06-1.1.17-2.22.32-3.33l19.91-155.89c1.73-12.92,12.35-22.52,24.9-22.52h50.46c6.89,0,12.73,1.37,17.94,6.09l18.44,147.43C1257.88,760.28,1237,785.25,1209.75,785.25Z" transform="translate(-118.91 -168)"/><line class="cls-15" x1="1761.38" y1="841.08" x2="10" y2="841.08"/></g><g id="Man"><ellipse class="cls-16" cx="855.35" cy="988.72" rx="542.38" ry="3.94"/><rect class="cls-17" x="880.9" y="761.82" width="19.74" height="395.31" transform="translate(1662.64 1750.95) rotate(-180)"/><rect class="cls-18" x="861.16" y="761.82" width="19.74" height="395.31" transform="translate(1623.15 1750.95) rotate(-180)"/><rect class="cls-17" x="1035.98" y="761.82" width="19.74" height="395.31" transform="translate(1972.8 1750.95) rotate(-180)"/><rect class="cls-18" x="1016.23" y="761.82" width="19.74" height="395.31" transform="translate(1933.31 1750.95) rotate(-180)"/><rect class="cls-17" x="880.9" y="761.82" width="155.08" height="166.09" transform="translate(1797.98 1521.73) rotate(-180)"/><rect class="cls-18" x="808.27" y="735.53" width="518.26" height="26.29" transform="translate(2015.89 1329.35) rotate(-180)"/><rect class="cls-17" x="1287.84" y="735.53" width="208.69" height="26.29" transform="translate(2665.47 1329.35) rotate(-180)"/><rect class="cls-17" x="1423.49" y="761.82" width="21.11" height="395.31" transform="translate(2749.18 1750.95) rotate(-180)"/><rect class="cls-18" x="1402.37" y="761.82" width="21.11" height="395.31" transform="translate(2706.95 1750.95) rotate(-180)"/><rect class="cls-17" x="1257.02" y="761.82" width="21.11" height="395.31" transform="translate(2416.25 1750.95) rotate(-180)"/><rect class="cls-17" x="1257.02" y="761.94" width="166.46" height="200.6" transform="translate(2561.6 1556.47) rotate(-180)"/><rect class="cls-18" x="1097.96" y="761.84" width="137.95" height="200.6" transform="translate(2214.96 1556.28) rotate(-180)"/><rect class="cls-18" x="1235.91" y="761.82" width="21.11" height="395.31" transform="translate(2374.02 1750.95) rotate(-180)"/><rect class="cls-18" x="1235.91" y="761.82" width="208.69" height="35.15" transform="translate(2561.6 1390.79) rotate(-180)"/><rect class="cls-18" x="861.16" y="761.82" width="194.57" height="35.15" transform="translate(1797.98 1390.79) rotate(-180)"/><rect class="cls-17" x="1120.24" y="780.94" width="93.38" height="69.52" transform="translate(2214.96 1463.41) rotate(-180)"/><rect class="cls-17" x="1120.24" y="869.06" width="93.38" height="69.52" transform="translate(2214.96 1639.65) rotate(-180)"/><ellipse class="cls-18" cx="1048.03" cy="647.7" rx="14.63" ry="14.91"/><ellipse class="cls-18" cx="1048.03" cy="735.83" rx="14.63" ry="14.91"/><polygon class="cls-18" points="1123.42 290.78 1078.48 456.57 1067.81 495.94 1065.19 505.62 1048.41 567.52 1041.38 567.52 1041.38 567.6 974.1 567.6 974.12 567.52 975.82 561.27 990.9 505.62 993.52 495.94 1004.19 456.57 1049.13 290.78 1123.42 290.78"/><polygon class="cls-19" points="1112 290.78 1067.06 456.57 1056.39 495.94 1053.77 505.62 1038.69 561.27 1036.99 567.52 1036.97 567.6 962.68 567.6 962.7 567.52 964.4 561.27 979.48 505.62 982.1 495.94 984.2 488.22 985.63 482.93 988.41 472.67 989.73 467.81 992.77 456.57 1037.71 290.78 1112 290.78"/><rect class="cls-19" x="883.51" y="561.27" width="146.45" height="6.33"/><rect class="cls-18" x="989.9" y="561.27" width="51.48" height="6.33"/><path class="cls-17" d="M997.79,378.46H1380a5.94,5.94,0,0,1,5.49,7.62l-76.76,283.2a5.75,5.75,0,0,1-5.49,4.34H921a5.92,5.92,0,0,1-5.48-7.61l76.75-283.2A5.76,5.76,0,0,1,997.79,378.46Z" transform="translate(-118.91 -168)"/><path class="cls-18" d="M991.86,378.46h376c4.68,0,8.06,4.7,6.78,9.42l-75.06,277a11.62,11.62,0,0,1-11.1,8.79h-370c-7.65,0-13.19-7.68-11.09-15.4l73.44-271A11.63,11.63,0,0,1,991.86,378.46Z" transform="translate(-118.91 -168)"/><polygon class="cls-20" points="876.32 223.72 1239.71 223.72 1165.93 495.94 802.54 495.94 876.32 223.72"/><path class="cls-21" d="M1310.47,624.57l-10.92,40.26a11.63,11.63,0,0,1-11.09,8.8h-370c-7.65,0-13.19-7.69-11.09-15.41l9.12-33.65Z" transform="translate(-118.91 -168)"/><ellipse class="cls-18" cx="1095.92" cy="651.69" rx="10.95" ry="8.38" transform="translate(26.29 1333.32) rotate(-72.52)"/><path class="cls-18" d="M1103.15,637a9.05,9.05,0,0,1,7-.91s-1.88,4.6-5.27,6.7a9.05,9.05,0,0,1-7,.91S1099.76,639.11,1103.15,637Z" transform="translate(-118.91 -168)"/><g class="cls-22"><rect class="cls-23" x="802.54" y="223.45" width="413.41" height="233.12"/><ellipse class="cls-24" cx="1194.51" cy="306.29" rx="147.17" ry="135.09"/><ellipse class="cls-25" cx="1215.3" cy="486.14" rx="42.62" ry="53.74" transform="translate(-163.95 -35.16) rotate(-6.14)"/><ellipse class="cls-26" cx="1215.3" cy="486.14" rx="7.8" ry="11.4" transform="translate(-160.04 -48.83) rotate(-5.52)"/><line class="cls-27" x1="835.95" y1="352.98" x2="1032.9" y2="328.68"/><line class="cls-28" x1="1069.66" y1="272.75" x2="1032.9" y2="328.68"/><line class="cls-28" x1="1100.77" y1="267.18" x2="1032.9" y2="328.68"/><line class="cls-28" x1="1130.29" y1="295.47" x2="1032.9" y2="328.68"/><line class="cls-28" x1="1133.77" y1="342.76" x2="1032.9" y2="328.68"/><line class="cls-28" x1="1110.04" y1="370.52" x2="1032.9" y2="328.68"/><line class="cls-28" x1="1078.78" y1="365.47" x2="1032.9" y2="328.68"/></g><circle class="cls-29" cx="892.44" cy="239.34" r="2.09"/><circle class="cls-29" cx="929.38" cy="256.84" r="3.52"/><circle class="cls-29" cx="893.87" cy="292.35" r="3.52"/><circle class="cls-29" cx="987.04" cy="274.97" r="4.23"/><circle class="cls-29" cx="988.4" cy="240.7" r="1.37"/><circle class="cls-29" cx="998.72" cy="400.55" r="4.86"/><circle class="cls-29" cx="899.4" cy="393.68" r="2.01"/><circle class="cls-29" cx="843.37" cy="428.1" r="3.94"/><circle class="cls-29" cx="949.73" cy="367.3" r="1.42"/><circle class="cls-29" cx="1062.85" cy="437.54" r="4"/><circle class="cls-29" cx="1039.83" cy="366.96" r="2.43"/><line class="cls-30" x1="836.09" y1="443.92" x2="971.75" y2="443.92"/><line class="cls-31" x1="991.01" y1="443.92" x2="1162.8" y2="443.92"/><ellipse class="cls-21" cx="1099.91" cy="611.92" rx="7.41" ry="5.99" transform="translate(67.01 1309.3) rotate(-72.52)"/><path class="cls-32" d="M794.3,744.28l-19.77-52.83,4.3-16.91L828,667s66.89,139.67-1.35,124.14" transform="translate(-118.91 -168)"/><line class="cls-33" x1="551.31" y1="849.07" x2="512.85" y2="732.01"/><line class="cls-33" x1="581.4" y1="732.01" x2="481.2" y2="848.75"/><line class="cls-34" x1="581.4" y1="732.01" x2="725.1" y2="847.44"/><line class="cls-33" x1="693.66" y1="732.01" x2="551.31" y2="847.44"/><polygon class="cls-35" points="685.69 732.01 701.93 732.01 771.44 989.13 755.2 989.13 685.69 732.01"/><polygon class="cls-36" points="521.66 732.01 505.42 732.01 435.9 989.13 452.14 989.13 521.66 732.01"/><polygon class="cls-36" points="607.9 732.01 624.14 732.01 693.66 989.13 677.42 989.13 607.9 732.01"/><polygon class="cls-35" points="589.79 732.01 573.55 732.01 504.03 989.13 520.27 989.13 589.79 732.01"/><ellipse class="cls-37" cx="670.44" cy="1008.96" rx="6.15" ry="3.56" transform="translate(-589.95 1246.56) rotate(-75.96)"/><path class="cls-38" d="M607.23,900.8h68.35a57.67,57.67,0,0,0,57.12-65.61L707.08,651A32.36,32.36,0,0,0,675,623.06H607.78a32.35,32.35,0,0,0-32,27.9L550.12,835.19A57.66,57.66,0,0,0,607.23,900.8Z" transform="translate(-118.91 -168)"/><path class="cls-38" d="M650.17,873.47h213a0,0,0,0,1,0,0V900.8a0,0,0,0,1,0,0H625.06a0,0,0,0,1,0,0v-2.23A25.1,25.1,0,0,1,650.17,873.47Z" transform="translate(1369.27 1606.27) rotate(180)"/><ellipse class="cls-37" cx="698.51" cy="908.71" rx="6.15" ry="3.56" transform="translate(-471.43 1197.87) rotate(-75.96)"/><path class="cls-39" d="M933.94,1093.26l-.31,28.72s60.26,10.15,80.68,34.74h-120l5-82.12Z" transform="translate(-118.91 -168)"/><path class="cls-39" d="M741.71,1086.68l-.33,34.17s26.88,3.75,37.82,35.6h-87l8.7-37.49,3.4-34.18Z" transform="translate(-118.91 -168)"/><polygon class="cls-40" points="780.38 914.13 777.59 952.2 814.72 953.98 815.03 925.25 780.38 914.13"/><polygon class="cls-40" points="586.11 906.89 581.98 950.96 622.48 952.85 622.81 918.67 586.11 906.89"/><path class="cls-37" d="M910.94,791.08H701.64l-10,87.68H891.8l-3,226.63H953l30.32-232.46A72.89,72.89,0,0,0,910.94,791.08Z" transform="translate(-118.91 -168)"/><path class="cls-35" d="M770.43,791.08H600.11S562.25,570.14,702.87,570.14c103.94,0,131,104.31,131,104.31l-54.17,17.19Z" transform="translate(-118.91 -168)"/><path class="cls-32" d="M827.81,791.36c-28.69-.28-67.29-89.52-67.29-89.52l25.42-18.36,40.58,54.88" transform="translate(-118.91 -168)"/><circle class="cls-41" cx="637.22" cy="549.21" r="10.32"/><circle class="cls-41" cx="635.98" cy="538.46" r="3.92"/><circle class="cls-41" cx="626.32" cy="544.27" r="3.92"/><path class="cls-32" d="M804,696.92c1.82,4.52.94,19.48.94,19.48A94,94,0,0,1,801.31,728c-2.36,6-3.95,9.48-4.15,20.94-.13,8-9.15-1.18-10.18-6.47-1.07-5.45,5.07-20-1.24-20.9s-15.42,11.47-21.57,25c-1,2.13-3.61,2.48-5.16,2.14-2.51-.55-.93-10.6-.93-10.6s-2.62,2-5.12-1.52c-.89-1.25-1.17-9.11-1.17-9.11a32.65,32.65,0,0,1-.77-8.54c.57-7,4.1-18.14,6.17-20.63,5-6,14.26-15.89,21.1-19.52S801.08,689.61,804,696.92Z" transform="translate(-118.91 -168)"/><circle class="cls-41" cx="698.18" cy="555.74" r="3.92"/><circle class="cls-42" cx="681.61" cy="563.05" r="10.32"/><circle class="cls-42" cx="687.84" cy="558.19" r="10.32"/><path class="cls-32" d="M672,574.18c5.69,16.69,35.15,25.26,56.4,22.93,22.62-2.47,17.07-18.23,5.72-23.74-20.88-5.12-10.34-5.06-31.49-4.3C694.83,569.36,679.64,572.44,672,574.18Z" transform="translate(-118.91 -168)"/><path class="cls-39" d="M752.05,429.31c3.79.62,41.8,21.3,7.06,52.81Z" transform="translate(-118.91 -168)"/><path class="cls-32" d="M663.61,509.88l2.23,8.68c27.23-15.47,7-36.9,7-36.9,41.15-.71,67.55-9,84-20.5q-.58-1-1.2-2l-2.6-1.3-47.25-23.73-55.28,24.71,8.11,31.66Z" transform="translate(-118.91 -168)"/><path class="cls-32" d="M659.14,513.65a31.63,31.63,0,0,1,6.66,4.86A20.89,20.89,0,0,0,659.14,513.65Z" transform="translate(-118.91 -168)"/><path class="cls-32" d="M677.49,550.15l1.11,23.53L729.83,578l.39-23.61s31.91.75,42.47-5.44c0,0-1.91-43.38-3.36-50.95-2.29-12.1-6-25.13-11.79-35.66l-.66-1.15c-16.47,11.48-42.87,19.79-84,20.5,0,0,20.21,21.43-7,36.9a.11.11,0,0,1,0,0,31.63,31.63,0,0,0-6.66-4.86c-.89-.44-1.81-.87-2.78-1.26a41.48,41.48,0,0,0-8.75-2.51h-.06a26.62,26.62,0,0,0-11.1.28h0a13.57,13.57,0,0,0-10.17,10.65l0,.15C620.34,546.91,677.49,550.15,677.49,550.15Z" transform="translate(-118.91 -168)"/><path class="cls-39" d="M636.44,510.15h0c3.41-.93,10.07-1.95,22.69,3.5a18.8,18.8,0,0,1,6.66,4.86.11.11,0,0,0,0,0c27.23-15.47,7-36.9,7-36.9,41.15-.71,67.55-9,84-20.5,40.68-28.34,20.73-76,12.75-76.42-10.51-.53-16.89,32-16.89,32s-22.7-47.42-54.59-36c-22.39,8-18.22,44.78-18.22,44.78s-34.87-6.9-55,37.95C607.45,502.48,630.22,509.08,636.44,510.15Z" transform="translate(-118.91 -168)"/><polyline class="cls-43" points="504.11 266.46 516.13 287.22 509.25 294.2 488.22 284.1"/><polygon class="cls-40" points="611.31 386.36 588.17 385.26 611.04 402.03 611.31 386.36"/><circle class="cls-39" cx="642.45" cy="333.49" r="6.4"/><circle class="cls-41" cx="649.18" cy="538.87" r="3.92"/><circle class="cls-41" cx="657.61" cy="540.5" r="3.92"/><circle class="cls-42" cx="653.34" cy="549.5" r="10.32"/><circle class="cls-42" cx="638.15" cy="557.42" r="10.32"/><circle class="cls-41" cx="681.23" cy="544.38" r="3.92"/><circle class="cls-41" cx="669.97" cy="537.89" r="3.92"/><circle class="cls-39" cx="614.94" cy="335.18" r="6.4"/><ellipse class="cls-37" cx="598.61" cy="1001.57" rx="6.15" ry="1.07" transform="translate(-645.15 1143.67) rotate(-74.55)"/><circle class="cls-42" cx="665.25" cy="562.31" r="10.32"/><ellipse class="cls-37" cx="624.49" cy="908.52" rx="6.15" ry="1.07" transform="translate(-536.49 1100.37) rotate(-74.55)"/><ellipse class="cls-37" cx="821.34" cy="907.28" rx="1.05" ry="6.16" transform="translate(-315.87 60.44) rotate(-14.16)"/><circle class="cls-42" cx="670.94" cy="550.47" r="10.32"/><ellipse class="cls-37" cx="846.66" cy="1005.58" rx="1.05" ry="6.16" transform="translate(-339.14 69.62) rotate(-14.16)"/><polygon class="cls-44" points="630.27 335.59 643.82 359.98 631.27 361.64 630.27 335.59"/><path class="cls-45" d="M661.9,633.21c12.71,17.83,19.17,47.62,19.17,47.62l-16.27,6.95" transform="translate(-118.91 -168)"/><polygon class="cls-46" points="696.99 563.53 676.21 618.32 668.22 639.38 623.69 630.77 624.13 608.25 625.28 549.66 696.99 563.53"/><polygon class="cls-47" points="645.28 553.53 630.11 632.01 623.69 630.77 624.13 608.25 635.09 551.56 645.28 553.53"/><rect class="cls-47" x="767.26" y="723.87" width="10.38" height="79.94" transform="translate(40.15 -300.76) rotate(10.94)"/><polygon class="cls-47" points="687.17 561.63 676.21 618.32 668.22 639.38 661.8 638.14 676.98 559.66 687.17 561.63"/><path class="cls-32" d="M725.86,771.34l25.67-16.15a105.64,105.64,0,0,1,12.5-4.13c6.85-1.78,11.05-2.67,20.65-9.39,6.69-4.68,6.52,7.7,3,11.66s-20.6,8.09-16.21,13.48,22.06,4.9,38.26,1.48c2.54-.54,5,1.26,6,2.65,1.6,2.25-8,7.07-8,7.07a3.86,3.86,0,0,1,2.92,4.82c-.3,1.43-6.54,6.36-6.54,6.36a28.62,28.62,0,0,1-6.41,5.7c-6.23,3.77-18.3,7.75-22.06,7.66-9.09-.21-24.75-1.36-33.33-4.41S736.78,782.57,725.86,771.34Z" transform="translate(-118.91 -168)"/><path class="cls-48" d="M733.84,530s.5,9,10.17,8.32" transform="translate(-118.91 -168)"/><path class="cls-49" d="M600.11,791.08H737.9c28.46,0,50.72,24.28,47.92,52.3l-27.13,262H695.57l10.68-226.63H661.49c-33.9,0-61.38-27.18-61.38-60.7Z" transform="translate(-118.91 -168)"/><path class="cls-32" d="M664.76,687.78,611,705.05s8.77,59.29,28.76,77.35S739.27,791,739.27,791l11.89-31.59-77.45-11.85Z" transform="translate(-118.91 -168)"/><polygon class="cls-40" points="545.85 519.78 492.07 537.05 496.45 559.49 545.85 519.78"/><rect class="cls-18" x="883.51" y="567.52" width="157.87" height="0.08"/></g></svg>